<svg xmlns="http://www.w3.org/2000/svg" viewBox="0 0 440 440" role="img" aria-labelledby="title desc">
  <title id="title">Client preview QR placeholder</title>
  <desc id="desc">White-label QR-style placeholder for the client app preview.</desc>
  <rect width="440" height="440" rx="24" fill="#f8fafc"/>
  <g fill="#06111f">
    <rect x="44" y="44" width="92" height="92" rx="6"/>
    <rect x="304" y="44" width="92" height="92" rx="6"/>
    <rect x="44" y="304" width="92" height="92" rx="6"/>
    <rect x="66" y="66" width="48" height="48" fill="#f8fafc"/>
    <rect x="326" y="66" width="48" height="48" fill="#f8fafc"/>
    <rect x="66" y="326" width="48" height="48" fill="#f8fafc"/>
    <rect x="176" y="50" width="24" height="24"/>
    <rect x="224" y="50" width="24" height="24"/>
    <rect x="252" y="82" width="24" height="52"/>
    <rect x="170" y="108" width="52" height="24"/>
    <rect x="164" y="164" width="28" height="28"/>
    <rect x="208" y="164" width="64" height="28"/>
    <rect x="308" y="164" width="28" height="72"/>
    <rect x="352" y="188" width="28" height="28"/>
    <rect x="164" y="220" width="72" height="28"/>
    <rect x="264" y="220" width="28" height="72"/>
    <rect x="352" y="252" width="28" height="28"/>
    <rect x="164" y="308" width="28" height="28"/>
    <rect x="208" y="308" width="28" height="72"/>
    <rect x="252" y="308" width="84" height="28"/>
    <rect x="352" y="324" width="28" height="56"/>
    <rect x="252" y="368" width="56" height="28"/>
  </g>
  <text x="220" y="424" text-anchor="middle" font-family="Arial, sans-serif" font-size="20" font-weight="700" fill="#06111f">CLIENT PREVIEW</text>
</svg>
