<svg xmlns="http://www.w3.org/2000/svg" viewBox="0 0 512 512" width="512" height="512" aria-hidden="true" focusable="false">
  <rect x="18" y="18" width="476" height="476" rx="86" fill="#ECFEFF"/>
  <circle cx="256" cy="256" r="190" fill="#BAE6FD" fill-opacity="0.72"/>
  <circle cx="410" cy="102" r="32" fill="#E11D48" fill-opacity="0.95"/>
  <circle cx="256" cy="244" r="112" fill="#FFFFFF"/>
  <path d="M212 210 C178 206 174 258 210 262 C178 278 190 326 232 310 M300 210 C334 206 338 258 302 262 C334 278 322 326 280 310 M256 176 L256 334" fill="none" stroke="#0369A1" stroke-width="16" stroke-linecap="round" stroke-linejoin="round"/>
  <path d="M256 344 C232 316 190 330 192 366 C194 404 240 416 256 438 C272 416 318 404 320 366 C322 330 280 316 256 344 Z" fill="#E11D48"/>
  <rect x="374" y="164" width="24" height="78" rx="8" fill="#16A34A"/>
  <rect x="347" y="191" width="78" height="24" rx="8" fill="#16A34A"/>
</svg>
