<?xml version="1.0" encoding="UTF-8"?>
<svg xmlns="http://www.w3.org/2000/svg" width="512" height="512" viewBox="0 0 512 512" aria-hidden="true">
<rect width="512" height="512" rx="96" fill="#164e63"/>
<circle cx="392" cy="116" r="76" fill="#84cc16" opacity=".24"/>
<circle cx="112" cy="398" r="92" fill="#bae6fd" opacity=".2"/>
<circle cx="256" cy="256" r="176" fill="#f8fafc" opacity=".97"/>
<circle cx="256" cy="160" r="38" fill="#84cc16"/>
<path d="M138 224 L256 150 L374 224Z" fill="#164e63"/>
<rect x="156" y="236" width="200" height="24" rx="10" fill="#164e63"/>
<rect x="170" y="274" width="34" height="88" rx="8" fill="#164e63"/>
<rect x="239" y="274" width="34" height="88" rx="8" fill="#164e63"/>
<rect x="308" y="274" width="34" height="88" rx="8" fill="#164e63"/>
<rect x="142" y="374" width="228" height="26" rx="12" fill="#164e63"/>
<path d="M188 334 C214 314 236 314 256 334 C276 314 298 314 324 334" fill="none" stroke="#84cc16" stroke-width="15" stroke-linecap="round"/>
</svg>
