<svg xmlns="http://www.w3.org/2000/svg" viewBox="0 0 512 512" width="512" height="512" aria-hidden="true" focusable="false">
  <rect x="18" y="18" width="476" height="476" rx="86" fill="#F7FEE7"/>
  <circle cx="256" cy="256" r="190" fill="#D9F99D" fill-opacity="0.72"/>
  <circle cx="410" cy="102" r="32" fill="#DC2626" fill-opacity="0.95"/>
  <circle cx="356" cy="138" r="48" fill="#DC2626"/>
  <path d="M132 382 L132 276 C132 202 186 148 256 148 C326 148 380 202 380 276 L380 382 L320 382 L320 276 C320 236 292 208 256 208 C220 208 192 236 192 276 L192 382 Z" fill="#15803D"/>
  <path d="M256 382 L256 272" fill="none" stroke="#FFFFFF" stroke-width="18" stroke-linecap="round" stroke-linejoin="round"/>
  <path d="M396 244 C360 236 336 252 318 286 M398 246 C404 286 390 322 358 346 M398 246 C438 264 452 300 444 342" fill="none" stroke="#B45309" stroke-width="14" stroke-linecap="round" stroke-linejoin="round"/>
  <path d="M394 246 L374 386" fill="none" stroke="#1F2937" stroke-width="14" stroke-linecap="round" stroke-linejoin="round"/>
</svg>
