<svg xmlns="http://www.w3.org/2000/svg" viewBox="0 0 512 512" role="img" aria-label="Non-text business logo mark">
  <rect width="512" height="512" rx="104" fill="#f7fee7"/>
  <circle cx="384" cy="126" r="82" fill="#b45309" opacity="0.18"/>
  <circle cx="126" cy="382" r="98" fill="#4d7c0f" opacity="0.14"/>
  <path d="M256 52 L430 153 L430 359 L256 460 L82 359 L82 153 Z" fill="#ecfccb" opacity="0.92"/>
  <path d="M256 74 L409 163 L409 349 L256 438 L103 349 L103 163 Z" fill="none" stroke="#1f2937" stroke-width="10" stroke-linejoin="round" opacity="0.88"/>
  <path d="M200 135 H312 L331 189 H181 Z" fill="#1f2937"/>
  <rect x="181" y="184" width="150" height="194" rx="38" fill="#4d7c0f"/>
  <rect x="212" y="215" width="88" height="97" rx="20" fill="#ffffff" opacity="0.88"/>
  <path d="M189 136 L212 99 M230 136 L243 91 M272 136 L272 88 M314 136 L301 91" fill="none" stroke="#b45309" stroke-width="12" stroke-linecap="round"/>
  <circle cx="256" cy="343" r="22" fill="#b45309"/>
  <path d="M331 306 C386 315 413 353 392 394 C374 429 323 421 324 380" fill="none" stroke="#1f2937" stroke-width="16" stroke-linecap="round"/>
</svg>
