<svg xmlns="http://www.w3.org/2000/svg" viewBox="0 0 512 512" role="img" aria-label="Non-text business logo mark">
  <rect width="512" height="512" rx="104" fill="#f0fdf4"/>
  <circle cx="384" cy="126" r="82" fill="#7c3aed" opacity="0.18"/>
  <circle cx="126" cy="382" r="98" fill="#15803d" opacity="0.14"/>
  <path d="M256 52 L430 153 L430 359 L256 460 L82 359 L82 153 Z" fill="#dcfce7" opacity="0.92"/>
  <path d="M256 74 L409 163 L409 349 L256 438 L103 349 L103 163 Z" fill="none" stroke="#0f172a" stroke-width="10" stroke-linejoin="round" opacity="0.88"/>
  <path d="M256 104 C341 104 396 169 380 247 C368 306 317 333 256 333 C195 333 144 306 132 247 C116 169 171 104 256 104 Z" fill="#15803d"/>
  <path d="M256 112 C287 148 301 197 297 252 C294 293 280 320 256 333 C232 320 218 293 215 252 C211 197 225 148 256 112 Z" fill="#7c3aed"/>
  <path d="M152 225 H360" fill="none" stroke="#ffffff" stroke-width="15" stroke-linecap="round" opacity="0.8"/>
  <path d="M210 329 L190 378" fill="none" stroke="#0f172a" stroke-width="13" stroke-linecap="round"/>
  <path d="M302 329 L322 378" fill="none" stroke="#0f172a" stroke-width="13" stroke-linecap="round"/>
  <rect x="190" y="372" width="132" height="55" rx="16" fill="#0f172a"/>
  <rect x="215" y="386" width="82" height="25" rx="8" fill="#06b6d4"/>
</svg>
