<svg xmlns="http://www.w3.org/2000/svg" viewBox="0 0 512 512" width="512" height="512" aria-hidden="true" focusable="false">
  <rect x="18" y="18" width="476" height="476" rx="86" fill="#F0FDFA"/>
  <circle cx="256" cy="256" r="190" fill="#CCFBF1" fill-opacity="0.72"/>
  <circle cx="410" cy="102" r="32" fill="#F59E0B" fill-opacity="0.95"/>
  <rect x="138" y="140" width="236" height="236" rx="36" fill="#0F766E"/>
  <rect x="176" y="178" width="160" height="160" rx="24" fill="#FFFFFF" fill-opacity="0.92"/>
  <path d="M256 178 L256 114 M198 178 L198 124 M314 178 L314 124 M256 338 L256 398 M198 338 L198 388 M314 338 L314 388 M176 256 L114 256 M336 256 L398 256 M176 204 L126 204 M336 306 L386 306" fill="none" stroke="#1D4ED8" stroke-width="14" stroke-linecap="round" stroke-linejoin="round"/>
  <circle cx="256" cy="114" r="14" fill="#F59E0B"/>
  <circle cx="198" cy="124" r="12" fill="#F59E0B"/>
  <circle cx="314" cy="124" r="12" fill="#F59E0B"/>
  <circle cx="114" cy="256" r="14" fill="#F59E0B"/>
  <circle cx="398" cy="256" r="14" fill="#F59E0B"/>
  <path d="M222 258 L250 286 L306 226" fill="none" stroke="#111827" stroke-width="18" stroke-linecap="round" stroke-linejoin="round"/>
</svg>
